<svg width="188px" height="188px" viewBox="0 0 188 188" fill="none" xmlns="http://www.w3.org/2000/svg" transform="rotate(0) scale(1, 1)">
<path d="M54.0641 126.004L61.8833 114.716L65.9631 112.502L72.8271 113.23L76.6926 109.696L75.762 108.722L65.0028 107.579L58.6376 111.034L52.7381 119.552L40.9577 112.237L35.7399 98.3518L18.5122 82.1511H58.2913V61.575L53.5417 57.2313V77.3579H6.44727L31.6914 101.097L37.0913 115.463L54.0641 126.004Z" fill="#0c719d"/>
<path d="M58.2913 22.2526H89.2571V49.2797L102.643 54.3455L114.141 55.7957L126.244 61.3939L132.505 59.2874L142.666 59.7531L151.407 60.2171L160.686 64.2891V80.154L160.864 80.677L166.684 83.0287L165.436 79.3549V61.1461L152.515 55.4761L142.899 54.9659L131.84 54.4583L126.52 56.2486L115.455 51.1306L103.787 49.6591L94.0067 45.9571V17.4594H53.5417V37.3099L58.2913 39.2292V22.2526Z" fill="#0c719d"/>
<path d="M161.973 112.378L146.356 123.504L126.295 134.639L121.528 151.746L123.804 163.232L108.447 159.453L101.108 149.869L99.6437 141.494L93.5232 134.631L88.8261 136.529L95.2024 143.679L96.6343 151.865L105.705 163.712L129.924 169.673L126.409 151.936L130.328 137.871L148.762 127.639L166.08 115.32L169.279 104.019L163.702 106.274L161.973 112.378Z" fill="#0c719d"/>
<path d="M35.0193 33.9908L100.17 93.5662L35.0193 153.142L182.455 93.5637L35.0193 33.9908ZM106.549 100.67L114.318 93.5662L106.549 86.4615L80.6031 62.7364L156.898 93.5662L80.6031 124.395L106.549 100.67Z" fill="#0c719d"/>
</svg>